<svg width="58" height="28" viewBox="0 0 58 28" fill="none" xmlns="http://www.w3.org/2000/svg">
<path d="M0.228516 2.38281C0.228516 2.37109 0.228516 2.35352 0.228516 2.33008C0.251953 2.30664 0.28125 2.25977 0.316406 2.18945C0.363281 2.11914 0.410156 2.05469 0.457031 1.99609C0.503906 1.92578 0.544922 1.86719 0.580078 1.82031C0.615234 1.76172 0.638672 1.73242 0.650391 1.73242C0.720703 1.69727 0.826172 1.65625 0.966797 1.60938C1.02539 1.58594 1.0957 1.57422 1.17773 1.57422V2.55859L4.11328 8.2539L4.32422 8.043C4.34766 7.9258 4.40625 7.7266 4.5 7.4453C4.60547 7.1523 4.71094 6.8418 4.81641 6.5137C4.92188 6.1855 5.02148 5.88086 5.11523 5.59961C5.2207 5.31836 5.29102 5.11914 5.32617 5.00195C5.34961 4.94336 5.39648 4.83789 5.4668 4.68555C5.54883 4.5332 5.63672 4.35156 5.73047 4.14062C5.83594 3.92969 5.94141 3.70703 6.04688 3.47266C6.16406 3.23828 6.26953 3.01562 6.36328 2.80469C6.46875 2.59375 6.55664 2.41211 6.62695 2.25977C6.69727 2.0957 6.74414 1.99023 6.76758 1.94336C6.80273 1.87305 6.82617 1.76758 6.83789 1.62695C6.86133 1.48633 6.89062 1.35156 6.92578 1.22266C6.97266 1.08203 7.03711 0.96484 7.11914 0.87109C7.20117 0.76562 7.31836 0.712891 7.4707 0.712891C7.49414 0.712891 7.51172 0.718751 7.52344 0.730471C7.54688 0.730471 7.56445 0.730471 7.57617 0.730471C7.63477 0.742191 7.7168 0.77734 7.82227 0.83594C7.92773 0.88281 7.98047 0.90625 7.98047 0.90625L10.4238 11.1016C10.4473 11.1367 10.4766 11.1895 10.5117 11.2598C10.5586 11.3301 10.5996 11.4121 10.6348 11.5059C10.6816 11.5879 10.7227 11.6699 10.7578 11.752C10.8047 11.8223 10.8281 11.875 10.8281 11.9102C10.8281 11.9219 10.8281 11.9395 10.8281 11.9629C10.8398 11.9863 10.8457 12.0098 10.8457 12.0332C10.8457 12.1738 10.8105 12.2969 10.7402 12.4023C10.6816 12.5078 10.5762 12.5605 10.4238 12.5605C10.3066 12.5605 10.207 12.5371 10.125 12.4902C10.0547 12.4316 10.0254 12.3145 10.0371 12.1387C9.99023 11.9277 9.91992 11.6113 9.82617 11.1895C9.73242 10.7676 9.62109 10.2871 9.49219 9.748C9.375 9.209 9.25195 8.6465 9.12305 8.0605C8.99414 7.4629 8.86523 6.8945 8.73633 6.3555C8.61914 5.81641 8.51367 5.33594 8.41992 4.91406C8.32617 4.49219 8.25 4.18164 8.19141 3.98242C8.16797 3.91211 8.12695 3.78906 8.06836 3.61328C8.00977 3.42578 7.95117 3.23828 7.89258 3.05078C7.83398 2.85156 7.77539 2.66992 7.7168 2.50586C7.6582 2.33008 7.61133 2.21289 7.57617 2.1543C6.81445 3.26758 6.1875 4.47461 5.69531 5.77539C5.21484 7.0762 4.82227 8.377 4.51758 9.6777C4.50586 9.6895 4.45312 9.7012 4.35938 9.7129C4.27734 9.7129 4.22461 9.7129 4.20117 9.7129C4.02539 9.7129 3.87305 9.6191 3.74414 9.4316C3.61523 9.2324 3.50391 9.0098 3.41016 8.7637C3.32812 8.5059 3.25781 8.2656 3.19922 8.043C3.15234 7.8203 3.11719 7.6855 3.09375 7.6387C3.05859 7.5449 2.99414 7.4043 2.90039 7.2168L1.81055 5.03711C1.69336 4.80273 1.58203 4.5918 1.47656 4.4043C1.38281 4.20508 1.3125 4.06445 1.26562 3.98242V4.38672C1.28906 4.59766 1.31836 4.93164 1.35352 5.38867C1.40039 5.8457 1.44727 6.3672 1.49414 6.9531C1.55273 7.5273 1.61133 8.1309 1.66992 8.7637C1.72852 9.3965 1.78125 10.0059 1.82812 10.5918C1.88672 11.166 1.93359 11.6816 1.96875 12.1387C2.01562 12.584 2.05078 12.918 2.07422 13.1406C2.13281 13.3398 2.17969 13.5156 2.21484 13.668C2.26172 13.8203 2.28516 13.9902 2.28516 14.1777C2.28516 14.2832 2.26172 14.377 2.21484 14.459C2.16797 14.541 2.08594 14.582 1.96875 14.582C1.85156 14.582 1.75781 14.5176 1.6875 14.3887C1.61719 14.2715 1.56445 14.1367 1.5293 13.9844C1.50586 13.8438 1.48828 13.709 1.47656 13.5801C1.46484 13.4629 1.45898 13.3926 1.45898 13.3691C1.2832 11.752 1.14844 10.1465 1.05469 8.5527C0.972656 6.959 0.837891 5.35938 0.650391 3.75391C0.638672 3.68359 0.609375 3.58984 0.5625 3.47266C0.527344 3.35547 0.480469 3.23828 0.421875 3.12109C0.375 2.99219 0.328125 2.86914 0.28125 2.75195C0.246094 2.63477 0.228516 2.53516 0.228516 2.45312V2.38281ZM11.9595 11.1719C11.9595 10.832 11.9946 10.4102 12.0649 9.9062C12.147 9.4023 12.2583 8.8809 12.3989 8.3418C12.5513 7.791 12.7388 7.2402 12.9614 6.6895C13.1958 6.1387 13.4595 5.64648 13.7524 5.21289C14.0454 4.76758 14.3794 4.41016 14.7544 4.14062C15.1294 3.87109 15.5395 3.73633 15.9848 3.73633C15.9848 3.90039 15.9145 4.06445 15.7739 4.22852C15.645 4.38086 15.4927 4.5332 15.3169 4.68555C15.1528 4.82617 14.9829 4.9668 14.8071 5.10742C14.6313 5.23633 14.5083 5.35938 14.438 5.47656C14.1567 5.83984 13.9048 6.2441 13.6821 6.6895C13.4595 7.123 13.2661 7.5742 13.102 8.043C12.938 8.5 12.8091 8.9746 12.7153 9.4668C12.6216 9.9473 12.5747 10.416 12.5747 10.873C12.5747 10.9434 12.5864 11.0547 12.6098 11.207C12.6333 11.3477 12.6626 11.4941 12.6977 11.6465C12.7446 11.7988 12.8032 11.9336 12.8735 12.0508C12.9438 12.1562 13.02 12.209 13.102 12.209H13.1548C13.1665 12.209 13.1782 12.2031 13.1899 12.1914C13.5063 11.8398 13.77 11.459 13.9809 11.0488C14.1919 10.6387 14.3735 10.2168 14.5259 9.7832C14.6782 9.3379 14.8071 8.8867 14.9126 8.4297C15.018 7.9727 15.1235 7.5215 15.229 7.0762C15.2641 6.9473 15.2759 6.7539 15.2641 6.4961C15.2641 6.2383 15.2759 5.98633 15.2993 5.74023C15.3345 5.49414 15.3989 5.2832 15.4927 5.10742C15.5864 4.91992 15.7563 4.82617 16.0024 4.82617C16.0493 4.82617 16.102 4.83203 16.1606 4.84375C16.2309 4.84375 16.2661 4.84961 16.2661 4.86133C16.6997 5.76367 17.0688 6.5312 17.3735 7.1641C17.6782 7.7852 17.936 8.3008 18.147 8.7109C18.3579 9.1211 18.5278 9.4434 18.6567 9.6777C18.7856 9.9121 18.8794 10.0938 18.938 10.2227C19.0083 10.3398 19.0552 10.4219 19.0786 10.4688C19.102 10.5039 19.1138 10.5332 19.1138 10.5566C19.1255 10.6035 19.1372 10.6914 19.1489 10.8203C19.1606 10.9375 19.1665 11.0664 19.1665 11.207C19.1782 11.3359 19.1841 11.4648 19.1841 11.5938C19.1958 11.7109 19.2016 11.7871 19.2016 11.8223C19.0845 11.8223 18.9555 11.8164 18.8149 11.8047C18.6743 11.793 18.5747 11.7168 18.5161 11.5762L16.2661 6.9004L16.0727 6.6895C16.0376 6.8184 15.9673 7.0469 15.8618 7.375C15.768 7.7031 15.6626 8.0547 15.5454 8.4297C15.4399 8.793 15.3403 9.1387 15.2466 9.4668C15.1528 9.7949 15.0884 10.0234 15.0532 10.1523C14.9829 10.3281 14.8891 10.5742 14.772 10.8906C14.6665 11.207 14.5317 11.5234 14.3677 11.8398C14.2036 12.1562 14.0161 12.4316 13.8052 12.666C13.5942 12.9004 13.3598 13.0176 13.102 13.0176C12.8911 13.0176 12.7153 12.9531 12.5747 12.8242C12.4341 12.6836 12.3169 12.5137 12.2231 12.3145C12.1294 12.1152 12.0591 11.9102 12.0122 11.6992C11.977 11.4883 11.9595 11.3125 11.9595 11.1719ZM19.8232 6.2852L20.8603 10.5566H21.0713C21.1064 10.1816 21.1709 9.7832 21.2646 9.3613C21.3701 8.9395 21.5107 8.5234 21.6865 8.1133C21.8623 7.6914 22.0673 7.2871 22.3017 6.9004C22.5478 6.5137 22.8232 6.1738 23.1279 5.88086C23.4326 5.58789 23.7724 5.35352 24.1474 5.17773C24.5341 5.00195 24.956 4.91406 25.413 4.91406C25.413 5.19531 25.2959 5.44141 25.0615 5.65234C24.8388 5.86328 24.5693 6.0684 24.2529 6.2676C23.9365 6.4668 23.6084 6.6777 23.2685 6.9004C22.9404 7.123 22.6826 7.3926 22.4951 7.709C22.2959 8.0254 22.1318 8.3945 22.0029 8.8164C21.8857 9.2266 21.7861 9.6543 21.7041 10.0996C21.6338 10.5332 21.581 10.9727 21.5459 11.418C21.5107 11.8516 21.4814 12.2441 21.458 12.5957C21.3877 12.7012 21.3115 12.8008 21.2295 12.8945C21.1591 12.9766 21.0654 13.0176 20.9482 13.0176C20.9013 13.0176 20.8427 13.0059 20.7724 12.9824C20.7021 12.9473 20.6552 12.8828 20.6318 12.7891L19.3662 6.2852H19.8232ZM26.0873 10.4512C26.0873 10.334 26.1049 10.1172 26.1401 9.8008C26.1752 9.4727 26.2221 9.0977 26.2807 8.6758C26.351 8.2539 26.4448 7.8145 26.562 7.3574C26.6791 6.9004 26.8139 6.4785 26.9662 6.0918C27.1303 5.70508 27.312 5.38867 27.5112 5.14258C27.7221 4.89648 27.9623 4.77344 28.2319 4.77344C28.1264 5.10156 27.9858 5.48828 27.81 5.93359C27.6459 6.3789 27.4877 6.8477 27.3354 7.3398C27.183 7.8203 27.0541 8.3125 26.9487 8.8164C26.8549 9.3203 26.8256 9.7949 26.8608 10.2402C26.9077 10.6738 27.0424 11.0664 27.2651 11.418C27.4877 11.7695 27.8393 12.0391 28.3198 12.2266C28.7651 12.2266 29.1518 12.127 29.4799 11.9277C29.808 11.7285 30.0893 11.5059 30.3237 11.2598C30.5698 11.0137 30.7807 10.791 30.9565 10.5918C31.144 10.3926 31.3139 10.293 31.4662 10.293C31.4662 10.7383 31.3549 11.1309 31.1323 11.4707C30.9213 11.8105 30.6459 12.0977 30.3061 12.332C29.978 12.5547 29.603 12.7246 29.1811 12.8418C28.7709 12.959 28.3549 13.0176 27.933 13.0176C27.6049 13.0176 27.3178 12.9355 27.0717 12.7715C26.8373 12.6074 26.644 12.4023 26.4916 12.1562C26.351 11.8984 26.2455 11.623 26.1752 11.3301C26.1166 11.0254 26.0873 10.7324 26.0873 10.4512ZM34.496 13C34.2734 13.082 34.0683 13.0645 33.8808 12.9473C33.705 12.8184 33.5468 12.6309 33.4062 12.3848C33.2655 12.127 33.1425 11.8398 33.037 11.5234C32.9316 11.1953 32.8495 10.873 32.7909 10.5566C32.7323 10.2402 32.6913 9.9531 32.6679 9.6953C32.6562 9.4375 32.662 9.25 32.6855 9.1328C32.6855 9.0156 32.6913 8.834 32.703 8.5879C32.7148 8.3418 32.7265 8.0664 32.7382 7.7617C32.7499 7.4453 32.7616 7.123 32.7734 6.7949C32.7968 6.4551 32.8144 6.127 32.8261 5.81055C32.8378 5.49414 32.8495 5.21875 32.8613 4.98438C32.873 4.73828 32.8788 4.55664 32.8788 4.43945C32.9023 4.43945 32.9198 4.43359 32.9316 4.42188L32.9843 4.4043C33.1015 4.4043 33.2011 4.45703 33.2831 4.5625C33.3652 4.66797 33.4355 4.76758 33.4941 4.86133C33.4941 5.02539 33.4882 5.31836 33.4765 5.74023C33.4765 6.1621 33.4765 6.6133 33.4765 7.0938C33.4765 7.5742 33.4765 8.0312 33.4765 8.4648C33.4882 8.8867 33.4941 9.1797 33.4941 9.3438C33.5058 9.4844 33.5292 9.707 33.5644 10.0117C33.6113 10.3047 33.6698 10.6094 33.7402 10.9258C33.8105 11.2305 33.9042 11.5117 34.0214 11.7695C34.1503 12.0156 34.3085 12.1562 34.496 12.1914C34.9882 12.1914 35.3984 12.0098 35.7265 11.6465C36.0663 11.2832 36.3476 10.8262 36.5702 10.2754C36.7929 9.7246 36.9687 9.1328 37.0976 8.5C37.2382 7.8555 37.3554 7.252 37.4491 6.6895C37.5429 6.127 37.6249 5.6582 37.6952 5.2832C37.7773 4.89648 37.871 4.68555 37.9765 4.65039L38.3984 4.73828L39.3827 11.541C39.453 11.5762 39.5116 11.6289 39.5585 11.6992C39.6054 11.7695 39.6464 11.8457 39.6816 11.9277C39.7284 12.0098 39.7577 12.0918 39.7695 12.1738C39.7929 12.2559 39.8046 12.3145 39.8046 12.3496C39.7812 12.4316 39.7109 12.5195 39.5937 12.6133C39.4765 12.707 39.3769 12.7598 39.2948 12.7715H39.2245C39.2128 12.7715 39.2011 12.7715 39.1894 12.7715C39.1659 12.7363 39.1308 12.6836 39.0839 12.6133C39.0488 12.5312 39.0077 12.4492 38.9609 12.3672C38.914 12.2852 38.873 12.2031 38.8378 12.1211C38.8144 12.0273 38.7968 11.9688 38.7851 11.9453C38.7499 11.8281 38.7089 11.6465 38.662 11.4004C38.6269 11.1543 38.5917 10.8848 38.5566 10.5918C38.5214 10.2871 38.4863 9.9707 38.4511 9.6426C38.4277 9.3027 38.3984 8.9805 38.3632 8.6758C38.3398 8.3594 38.3105 8.084 38.2753 7.8496C38.2519 7.6035 38.2226 7.4219 38.1874 7.3047C38.1288 7.5742 38.0468 7.8965 37.9413 8.2715C37.8359 8.6348 37.7011 9.0215 37.537 9.4316C37.3847 9.8418 37.2089 10.2461 37.0097 10.6445C36.8105 11.0312 36.582 11.3945 36.3241 11.7344C36.078 12.0625 35.8027 12.3438 35.498 12.5781C35.1933 12.8008 34.8593 12.9414 34.496 13ZM41.5336 12.4023C41.5336 12.2617 41.5453 12.1445 41.5687 12.0508C41.5922 11.9453 41.6273 11.875 41.6742 11.8398C41.7328 11.793 41.7973 11.793 41.8676 11.8398C41.9496 11.875 42.0492 11.9688 42.1664 12.1211C42.3773 12.1211 42.6234 12.1094 42.9047 12.0859C43.1859 12.0625 43.4789 12.0215 43.7836 11.9629C44.0883 11.9043 44.3871 11.8281 44.6801 11.7344C44.9848 11.6406 45.2484 11.5176 45.4711 11.3652C45.7055 11.2012 45.893 11.0137 46.0336 10.8027C46.1742 10.5801 46.2445 10.3223 46.2445 10.0293C46.2445 9.7363 46.1098 9.5195 45.8402 9.3789C45.5707 9.2383 45.225 9.1328 44.8031 9.0625C44.393 8.9805 43.9477 8.9043 43.4672 8.834C42.9984 8.752 42.559 8.6348 42.1488 8.4824C41.7387 8.3184 41.393 8.0898 41.1117 7.7969C40.8422 7.4922 40.7074 7.0703 40.7074 6.5312C40.7074 6.1562 40.7719 5.83984 40.9008 5.58203C41.0297 5.32422 41.2465 5.08398 41.5512 4.86133C41.6801 4.75586 41.9086 4.5918 42.2367 4.36914C42.5648 4.13477 42.9105 3.88867 43.2738 3.63086C43.6488 3.36133 44.0004 3.11523 44.3285 2.89258C44.6566 2.6582 44.8852 2.49414 45.0141 2.40039C45.0375 2.40039 45.0668 2.40039 45.102 2.40039C45.1488 2.38867 45.184 2.38281 45.2074 2.38281C45.5004 2.38281 45.6469 2.52344 45.6469 2.80469C45.6469 2.93359 45.5414 3.07422 45.3305 3.22656C45.1195 3.36719 44.85 3.52539 44.5219 3.70117C44.2055 3.87695 43.8598 4.06445 43.4848 4.26367C43.1215 4.46289 42.7758 4.68555 42.4477 4.93164C42.1312 5.16602 41.8676 5.42383 41.6566 5.70508C41.4457 5.97461 41.3402 6.2676 41.3402 6.584C41.3402 6.9238 41.4223 7.1699 41.5863 7.3223C41.7621 7.4746 42.0199 7.6035 42.3598 7.709C42.5004 7.7441 42.7406 7.8145 43.0805 7.9199C43.432 8.0137 43.8012 8.1191 44.1879 8.2363C44.5863 8.3418 44.9555 8.4414 45.2953 8.5352C45.6469 8.6289 45.893 8.6934 46.0336 8.7285C46.3383 8.8926 46.5844 9.0742 46.7719 9.2734C46.9711 9.4609 47.0707 9.7246 47.0707 10.0645C47.0707 10.3926 46.9828 10.6914 46.807 10.9609C46.643 11.2305 46.4203 11.4766 46.1391 11.6992C45.8695 11.9102 45.5531 12.1035 45.1898 12.2793C44.8383 12.4434 44.4809 12.584 44.1176 12.7012C43.7543 12.8066 43.3969 12.8887 43.0453 12.9473C42.7055 12.9941 42.4008 13.0176 42.1312 13.0176C41.8734 13.0176 41.7094 12.9824 41.6391 12.9121C41.5687 12.8301 41.5336 12.6602 41.5336 12.4023Z" fill="black"/>
<path d="M8.6063 27.6199C8.48588 27.6133 8.35648 27.5411 8.2181 27.4032C8.08026 27.2773 7.96559 27.1324 7.87407 26.9684C7.78255 26.8043 7.73517 26.6864 7.73191 26.6144C7.71671 26.2788 8.04481 25.8315 8.7162 25.2725C9.39959 24.713 10.3712 24.1525 11.6311 23.5909C12.4321 23.2423 13.1386 22.928 13.7506 22.648C14.3626 22.3681 14.904 22.1213 15.3748 21.9078C15.4059 21.7983 15.4312 21.695 15.4508 21.598C15.4699 21.4891 15.4773 21.3866 15.473 21.2907C15.4545 20.8831 15.2821 20.5246 14.9558 20.215C14.6409 19.8929 14.2257 19.6114 13.7103 19.3705C13.1948 19.1296 12.6148 18.9216 11.9703 18.7466C11.3371 18.5591 10.6934 18.402 10.039 18.2755C9.38458 18.149 8.76124 18.0451 8.16896 17.9638C8.14553 17.9769 8.11065 18.0025 8.06433 18.0406C8.01746 18.0668 7.9646 18.0932 7.90575 18.1199C7.87024 18.662 7.847 19.2096 7.83601 19.7627C7.83647 20.3032 7.8481 20.8252 7.8709 21.3287C7.88773 21.7003 7.91001 22.0597 7.93775 22.4068C7.97747 22.7534 8.01637 23.0819 8.05447 23.3925C8.1068 23.222 8.15288 23.0457 8.19268 22.8637C8.23195 22.6698 8.25757 22.5725 8.26956 22.572C8.29353 22.5709 8.30959 22.6602 8.31774 22.8401C8.32697 23.0438 8.33455 23.3438 8.34048 23.7399C8.34586 24.1241 8.3548 24.454 8.36729 24.7297C8.3776 24.9575 8.3893 25.0831 8.40237 25.1065C8.40292 25.1185 8.38521 25.1253 8.34924 25.127C8.27732 25.1302 8.14437 25.1122 7.95039 25.073C7.7684 25.0332 7.59759 24.9748 7.43795 24.898C7.27831 24.8211 7.18378 24.7233 7.15438 24.6045C7.06345 24.1882 7.00305 23.6504 6.97319 22.991C6.94333 22.3317 6.94045 21.6051 6.96456 20.8112C7.00011 20.0048 7.04165 19.1981 7.08919 18.3911C6.93497 18.4341 6.79793 18.4583 6.67805 18.4638C6.66606 18.4643 6.57534 18.4504 6.40589 18.422C6.23589 18.3817 6.07107 18.3231 5.91143 18.2462C5.75178 18.1694 5.66925 18.071 5.66382 17.9511C5.66056 17.8792 5.7998 17.7708 6.08153 17.6259C6.36272 17.469 6.72373 17.3506 7.16456 17.2705C7.22024 16.6434 7.27783 16.0582 7.33731 15.5149C7.39679 14.9717 7.45353 14.5006 7.50754 14.1018C7.40617 14.2505 7.31952 14.3265 7.24759 14.3298C7.22362 14.3308 7.21054 14.3074 7.20837 14.2595C7.2062 14.2115 7.21056 14.1753 7.22147 14.1508C7.25309 14.0532 7.30651 13.9067 7.38174 13.7111C7.46895 13.5149 7.55617 13.3188 7.64338 13.1226C7.74204 12.9139 7.84233 12.7412 7.94424 12.6045C8.04562 12.4557 8.13227 12.3797 8.20419 12.3765C8.38401 12.3683 8.56136 12.4384 8.73625 12.5866C8.92258 12.7223 9.01846 12.8501 9.02389 12.97L9.02633 13.0239C8.74944 13.541 8.52539 14.1638 8.35418 14.8923C8.19441 15.6082 8.0725 16.3645 7.98846 17.1611C8.0484 17.1584 8.10861 17.1617 8.16909 17.171C8.24156 17.1797 8.31375 17.1824 8.38568 17.1792L8.61944 17.1686C8.71534 17.1643 8.8235 17.1654 8.94392 17.1719C9.0638 17.1665 9.18395 17.1671 9.30437 17.1736C9.71851 17.0347 10.1555 16.8708 10.6154 16.6818C11.0874 16.4922 11.5219 16.2744 11.9192 16.0281C12.3285 15.7814 12.6587 15.5141 12.91 15.2265C13.1612 14.9388 13.2795 14.6332 13.2648 14.3095C13.2561 14.1177 13.121 13.9196 12.8595 13.7152C12.598 13.5108 12.2646 13.3097 11.8592 13.1119C11.4538 12.914 11.0133 12.7357 10.5377 12.5771C10.0734 12.4059 9.62257 12.2642 9.18504 12.1519C8.75895 12.027 8.4007 11.9411 8.11028 11.8942C7.26354 11.7644 6.55846 11.7123 5.99503 11.7378C5.87516 11.7432 5.76754 11.7541 5.67218 11.7704C5.58827 11.7742 5.51062 11.7837 5.43923 11.799C5.35369 11.7668 5.30983 11.7268 5.30766 11.6788C5.30332 11.5829 5.43057 11.475 5.68941 11.3552C5.94826 11.2354 6.27984 11.1303 6.68416 11.0399C7.08849 10.9495 7.49444 10.8951 7.90202 10.8766C8.06985 10.869 8.23196 10.8677 8.38834 10.8726C8.54472 10.8775 8.68966 10.895 8.82316 10.925C9.23508 11.0024 9.6846 11.1142 10.1717 11.2603C10.6588 11.4064 11.1473 11.5825 11.6371 11.7885C12.1269 11.9946 12.5756 12.2205 12.9831 12.4663C13.4021 12.6996 13.738 12.9547 13.9908 13.2315C14.243 13.4964 14.3754 13.7667 14.3879 14.0424C14.4026 14.3661 14.2363 14.6739 13.8892 14.9659C13.4145 15.3598 12.8987 15.7735 12.3417 16.2072C11.7843 16.6288 11.1399 16.9884 10.4086 17.2858C10.8684 17.361 11.3722 17.4764 11.9198 17.6317C12.4668 17.7751 13.0098 17.9608 13.5486 18.1886C14.0995 18.4159 14.598 18.6816 15.0442 18.9858C15.5019 19.2774 15.871 19.603 16.1516 19.9627C16.4321 20.3223 16.5819 20.712 16.6009 21.1315C16.6053 21.2274 16.6022 21.2936 16.5919 21.3301C17.1096 21.0905 17.4741 20.9178 17.6856 20.8121C17.897 20.7065 18.0147 20.6531 18.0387 20.652C18.0627 20.6509 18.0749 20.6564 18.0755 20.6683C18.082 20.8122 17.9397 20.9868 17.6487 21.1922C17.3577 21.3976 16.9776 21.625 16.5084 21.8745C16.3639 22.3975 16.0693 22.9214 15.6246 23.4461C15.1919 23.9702 14.6679 24.4684 14.0526 24.9407C13.4499 25.4245 12.8148 25.8557 12.1472 26.2343C11.4802 26.6248 10.8339 26.9424 10.2083 27.187C9.59476 27.431 9.06075 27.5753 8.6063 27.6199ZM8.43401 26.6006C9.03832 26.4171 9.57071 26.2368 10.0312 26.0598C10.4916 25.8828 10.9216 25.6952 11.321 25.4969C11.7205 25.2986 12.1123 25.0646 12.4965 24.795C12.8807 24.5253 13.2989 24.2121 13.7512 23.8553C14.0297 23.6384 14.2665 23.4295 14.4616 23.2285C14.6681 23.0149 14.845 22.8087 14.9921 22.6098C14.451 22.8626 13.8919 23.1161 13.3148 23.3705C12.7492 23.6123 12.225 23.8403 11.7422 24.0544C11.4359 24.1884 11.0902 24.3782 10.7049 24.6239C10.3316 24.869 9.97057 25.1196 9.6218 25.3756C9.27357 25.6437 8.98419 25.885 8.75367 26.0997C8.53567 26.3258 8.42912 26.4928 8.43401 26.6006ZM21.1633 23.5916C20.7198 23.6117 20.4089 23.3795 20.2308 22.8951C20.0522 22.3987 19.9463 21.7848 19.9132 21.0536C19.8953 20.658 19.8899 20.2738 19.897 19.9011C19.9036 19.5164 19.9072 19.198 19.9078 18.9457C19.7149 18.9304 19.5275 18.9028 19.3455 18.863C19.175 18.8107 19.0404 18.7567 18.9418 18.7011C18.9336 18.7856 18.8935 18.9616 18.8215 19.2291C18.749 19.4847 18.6604 19.783 18.5557 20.1241C18.4631 20.4646 18.3581 20.7997 18.2409 21.1293C18.1237 21.459 18.0101 21.7344 17.8999 21.9556C17.7893 22.1648 17.686 22.2716 17.5901 22.2759C17.5422 22.2781 17.5166 22.2432 17.5133 22.1713C17.509 22.0754 17.545 21.9416 17.6213 21.77C17.8388 21.2677 18.0317 20.7544 18.2002 20.2302C18.3686 19.7061 18.5183 19.1648 18.6492 18.6063C18.5271 18.5637 18.4334 18.4839 18.368 18.3667C18.3141 18.2371 18.2836 18.0943 18.2766 17.9384C18.257 17.5069 18.301 17.1505 18.4083 16.8694C18.5277 16.5877 18.6623 16.3774 18.8122 16.2385C18.9615 16.0876 19.0782 16.0102 19.1621 16.0064C19.3059 15.9999 19.3833 16.1165 19.3941 16.3563C19.3996 16.4761 19.378 16.6633 19.3295 16.9178C19.2804 17.1602 19.2199 17.4152 19.1479 17.6828C19.0754 17.9383 19.0127 18.1453 18.9598 18.3039C18.9598 18.3039 18.9969 18.3263 19.071 18.3709C19.1451 18.4156 19.2241 18.4361 19.308 18.4323C19.4279 18.4269 19.5385 18.3498 19.6399 18.201C19.7527 18.0398 19.8837 17.8837 20.0331 17.7328C20.1938 17.5693 20.4001 17.4819 20.6518 17.4705C20.7837 17.4645 20.8984 17.4773 20.9959 17.509C21.0929 17.5286 21.143 17.5744 21.1463 17.6463L21.1487 17.7002C21.0424 18.0054 20.9704 18.405 20.9328 18.8992C20.8945 19.3815 20.8866 19.8683 20.9088 20.3598C20.9284 20.7914 20.9708 21.1979 21.0361 21.5793C21.1009 21.9488 21.1864 22.2452 21.2926 22.4686C21.4108 22.6915 21.5419 22.7997 21.6857 22.7932C21.8296 22.7867 21.9639 22.7025 22.0887 22.5407C22.2135 22.3789 22.3198 22.2059 22.4076 22.0217C22.5073 21.837 22.5733 21.7019 22.6054 21.6164C22.836 21.1374 22.9783 20.8307 23.0322 20.6961C23.0856 20.5495 23.1603 20.4741 23.2562 20.4697C23.2922 20.4681 23.3112 20.4913 23.3134 20.5392C23.3145 20.5632 23.3052 20.6237 23.2856 20.7207C23.1597 21.1228 22.9986 21.5445 22.8023 21.9858C22.6175 22.4146 22.3881 22.7854 22.114 23.0981C21.8398 23.4108 21.5229 23.5753 21.1633 23.5916ZM27.3101 23.5475C27.1782 23.5534 27.0322 23.512 26.872 23.4232C26.7113 23.3223 26.5983 23.2133 26.5329 23.0962C26.5204 22.8204 26.5393 22.4412 26.5895 21.9584C26.6397 21.4757 26.6953 20.9807 26.7565 20.4734C26.829 19.9536 26.8931 19.5122 26.9487 19.1493C26.7482 19.4947 26.519 19.8715 26.2612 20.2796C26.0034 20.6877 25.7385 21.072 25.4665 21.4327C25.194 21.7814 24.9131 22.0764 24.6237 22.3178C24.3458 22.5466 24.0809 22.6667 23.8292 22.6781C23.5775 22.6895 23.3759 22.6145 23.2244 22.4532C23.0724 22.2799 22.9913 22.0794 22.9809 21.8516C22.9782 21.7917 22.9867 21.7132 23.0063 21.6162C23.0892 21.0599 23.2757 20.5349 23.5656 20.0413C23.867 19.5351 24.2131 19.087 24.6039 18.6969C25.0066 18.3063 25.4069 17.9939 25.8047 17.7596C26.2025 17.5254 26.5453 17.4018 26.833 17.3887C27.0487 17.379 27.2547 17.4177 27.4509 17.5049C27.6584 17.5796 27.8568 17.7148 28.0458 17.9104C28.0834 17.9447 28.1033 17.9859 28.1055 18.0338C28.1082 18.0938 28.0749 18.1553 28.0057 18.2185C27.9348 18.51 27.8607 18.8618 27.7832 19.2737C27.7172 19.6731 27.652 20.0905 27.5877 20.5258C27.5348 20.9486 27.4925 21.341 27.4608 21.7028C27.4291 22.0646 27.4176 22.3414 27.4263 22.5332C27.4323 22.665 27.4533 22.7301 27.4892 22.7285C27.5851 22.7242 27.7004 22.6169 27.835 22.4065C27.9816 22.1957 28.1209 21.9551 28.2528 21.6849C28.3847 21.4147 28.5 21.1752 28.5987 20.9665C28.7093 20.7573 28.7766 20.6521 28.8006 20.6511C28.8365 20.6494 28.8567 20.6966 28.861 20.7925C28.8703 20.9963 28.8157 21.251 28.6975 21.5567C28.5792 21.8623 28.4309 22.1693 28.2527 22.4777C28.0859 22.7736 27.9112 23.0277 27.7286 23.2402C27.5575 23.4402 27.418 23.5426 27.3101 23.5475ZM23.9429 22.0062C24.1108 21.9986 24.3162 21.8932 24.5593 21.69C24.8143 21.4863 25.0729 21.2283 25.335 20.9161C25.6092 20.6034 25.8705 20.2732 26.119 19.9256C26.3795 19.5775 26.5989 19.2492 26.7771 18.9409C26.9668 18.6199 27.0993 18.3617 27.1745 18.1661C26.9347 18.1769 26.6631 18.2793 26.3596 18.4733C26.0555 18.6552 25.7478 18.8914 25.4367 19.1818C25.1249 19.4601 24.8385 19.7674 24.5775 20.1036C24.3159 20.4277 24.108 20.7435 23.9537 21.0508C23.7995 21.3581 23.7272 21.6196 23.737 21.8354C23.7424 21.9553 23.8111 22.0122 23.9429 22.0062ZM30.8934 25.2231C30.7735 25.2285 30.6014 25.1402 30.3769 24.9582C30.165 24.7876 30.0102 24.5543 29.9128 24.2584C29.8556 24.0568 29.8071 23.7827 29.7674 23.4362C29.7277 23.0896 29.698 22.7006 29.6785 22.269C29.6459 21.5497 29.6229 20.776 29.6094 19.9477C29.6079 19.119 29.5922 18.3749 29.5624 17.7156C29.5526 17.4998 29.5374 17.2963 29.5167 17.105C29.508 16.9132 29.4944 16.7457 29.4759 16.6024C29.4508 16.5795 29.3781 16.5647 29.2577 16.5582C29.1487 16.5391 29.04 16.526 28.9316 16.5189C28.8346 16.4993 28.7861 16.4895 28.7861 16.4895C28.785 16.4655 28.8725 16.4075 29.0485 16.3154C29.2359 16.2108 29.5035 16.1506 29.8511 16.1349C30.2108 16.1186 30.4481 16.1859 30.563 16.3369C30.6894 16.4753 30.755 16.5985 30.7599 16.7064C30.761 16.7303 30.7624 16.7603 30.764 16.7963C30.7656 16.8322 30.761 16.8625 30.7501 16.887C30.647 17.5283 30.5551 18.2833 30.4743 19.1518C30.3929 20.0084 30.3737 20.9101 30.4166 21.8572C30.4269 22.0849 30.4362 22.2887 30.4443 22.4686C30.4639 22.6358 30.4767 22.7854 30.4827 22.9173L30.49 23.0791C30.5315 22.4045 30.6286 21.7635 30.7813 21.156C30.9334 20.5364 31.0831 19.863 31.2303 19.1356C31.3459 18.5057 31.4441 18.0208 31.5248 17.6808C31.6169 17.3282 31.714 17.0836 31.8159 16.9468C31.9292 16.7976 32.0638 16.7194 32.2197 16.7123C32.4355 16.7026 32.5894 16.7857 32.6814 16.9617C32.7735 17.1377 32.8386 17.381 32.8767 17.6916C32.9148 18.0022 32.955 18.3607 32.9975 18.7672C33.0394 19.1618 33.1186 19.5846 33.2351 20.0358C33.4099 20.7126 33.6003 21.2025 33.8062 21.5055C34.0121 21.8084 34.181 21.957 34.3129 21.951C34.4687 21.9439 34.6202 21.841 34.7673 21.6421C34.914 21.4313 35.0532 21.1907 35.1851 20.9205C35.317 20.6502 35.4326 20.4168 35.5318 20.2201C35.6424 20.0108 35.7337 19.9046 35.8057 19.9013C35.8416 19.8997 35.861 19.9289 35.8637 19.9888C35.8658 20.0368 35.8514 20.1155 35.8203 20.225C35.551 20.9099 35.3229 21.4428 35.1359 21.8236C34.9484 22.1925 34.6749 22.3851 34.3152 22.4013C34.0395 22.4138 33.7584 22.3064 33.4718 22.0792C33.3225 21.9658 33.17 21.7805 33.0142 21.5233C32.8698 21.2536 32.7304 20.9596 32.5958 20.6413C32.4613 20.3231 32.3336 20.0226 32.2127 19.7397C32.1032 19.4444 32.0081 19.2025 31.9275 19.0139C31.8469 18.8254 31.7946 18.7316 31.7706 18.7327C31.7467 18.7338 31.7058 18.7597 31.648 18.8103C31.6023 18.8605 31.5701 18.946 31.5515 19.067C31.3814 19.8194 31.247 20.5643 31.1482 21.3015C31.0609 22.0262 31.0006 22.6836 30.9673 23.2737C30.9334 23.8518 30.9235 24.2967 30.9376 24.6084C30.9447 24.7643 30.9556 24.8719 30.9703 24.9313C30.9975 25.0021 31.0119 25.0555 31.0136 25.0915C31.0174 25.1754 30.9773 25.2193 30.8934 25.2231ZM42.9054 25.3097C42.4858 25.3287 42.1025 25.0878 41.7555 24.5869C41.3447 24.0049 41.007 23.3115 40.7423 22.5067C40.4776 21.7018 40.2639 20.8286 40.1011 19.887C39.912 20.2199 39.6877 20.5724 39.4283 20.9445C39.1689 21.3166 38.8787 21.6721 38.5577 22.011C38.2361 22.3379 37.9001 22.6114 37.5497 22.8314C37.1988 23.0395 36.8375 23.152 36.4659 23.1688C36.1183 23.1846 35.8398 23.1371 35.6306 23.0265C35.4334 22.9153 35.2833 22.7839 35.1803 22.6324C35.0888 22.4684 35.0278 22.315 34.9973 22.1722C34.9788 22.0289 34.9682 21.9273 34.9655 21.8674C34.9503 21.5317 35.0536 21.1607 35.2754 20.7542C35.5093 20.3472 35.8401 19.9598 36.2679 19.5921C36.7071 19.2119 37.2273 18.894 37.8283 18.6385C38.4414 18.3825 39.1135 18.238 39.8448 18.2049L39.8627 18.204C39.8187 17.7616 39.7803 17.3129 39.7477 16.8579C39.7151 16.4029 39.6882 15.9416 39.667 15.4741C39.6383 14.8388 39.6277 14.2086 39.6355 13.5836C39.6432 12.9586 39.6776 12.3925 39.7387 11.8852C39.8113 11.3654 39.919 10.9581 40.0618 10.6633C40.1283 10.5402 40.2334 10.4754 40.3773 10.4688C40.689 10.4547 40.9761 10.5618 41.2387 10.7902C41.5008 11.0066 41.717 11.273 41.8875 11.5897C42.058 11.9063 42.1501 12.2144 42.1637 12.5141C42.2033 13.3892 42.0884 14.3013 41.8191 15.2505C41.5498 16.1997 41.2287 17.1992 40.8558 18.2492L40.8582 18.3031L41.1141 18.3816C41.3592 18.4906 41.5638 18.6315 41.7278 18.8043C41.9032 18.9645 41.9939 19.1105 41.9999 19.2424C42.0021 19.2904 41.9852 19.3152 41.9492 19.3168C41.9133 19.3184 41.8759 19.2901 41.8373 19.2318C41.5256 18.9816 41.2183 18.8273 40.9154 18.769C41.0569 19.7716 41.2548 20.6936 41.5091 21.535C41.7629 22.3643 42.0778 23.0828 42.4536 23.6904C42.6743 24.0528 42.8535 24.297 42.9913 24.4229C43.1297 24.5607 43.2468 24.6275 43.3427 24.6232C43.4386 24.6188 43.5198 24.5551 43.5863 24.4319C43.6654 24.3203 43.7289 24.2633 43.7768 24.2612C43.8128 24.2595 43.8324 24.2947 43.8356 24.3666L43.8389 24.4385C43.8176 24.4996 43.774 24.5976 43.7081 24.7327C43.6421 24.8679 43.5457 24.9924 43.4187 25.1062C43.2922 25.2321 43.1211 25.2999 42.9054 25.3097ZM40.7725 17.6043C40.995 16.9455 41.1724 16.3549 41.3049 15.8324C41.4374 15.3098 41.55 14.7462 41.6428 14.1413C41.67 13.9479 41.691 13.7488 41.7058 13.5439C41.72 13.327 41.7227 13.1227 41.7141 12.9309C41.6983 12.5832 41.6485 12.2792 41.5646 12.0187C41.4927 11.7577 41.3838 11.6065 41.2378 11.565C41.0301 11.7546 40.8759 12.0619 40.775 12.4869C40.6856 12.8994 40.6291 13.3764 40.6056 13.918C40.5935 14.4471 40.5997 14.9814 40.6241 15.5208C40.6567 16.2401 40.7062 16.9346 40.7725 17.6043ZM36.2486 22.7462C36.5482 22.7326 36.8736 22.6218 37.2245 22.4137C37.5869 22.1931 37.9409 21.9188 38.2864 21.5908C38.6439 21.2623 38.9703 20.9112 39.2657 20.5374C39.5725 20.1512 39.8263 19.7853 40.0268 19.4399L39.9207 18.6879C39.6096 18.714 39.26 18.8199 38.872 19.0057C38.496 19.1909 38.1099 19.4186 37.7137 19.6888C37.3295 19.9585 36.9764 20.2507 36.6543 20.5656C36.3317 20.8685 36.069 21.1687 35.8662 21.4662C35.6749 21.7512 35.5845 22.0075 35.5948 22.2353C35.6045 22.4511 35.726 22.6137 35.9592 22.7233C36.0077 22.7331 36.0562 22.7429 36.1047 22.7527C36.1527 22.7506 36.2006 22.7484 36.2486 22.7462ZM47.4179 22.6368C47.286 22.6427 47.14 22.6013 46.9798 22.5124C46.8191 22.4116 46.706 22.3026 46.6406 22.1855C46.6282 21.9097 46.647 21.5305 46.6972 21.0477C46.7474 20.565 46.8031 20.0699 46.8642 19.5627C46.9368 19.0428 47.0008 18.6015 47.0565 18.2386C46.8559 18.584 46.6267 18.9608 46.3689 19.3689C46.1111 19.7769 45.8462 20.1613 45.5743 20.522C45.3018 20.8707 45.0208 21.1657 44.7315 21.407C44.4535 21.6358 44.1887 21.756 43.937 21.7674C43.6852 21.7788 43.4836 21.7038 43.3322 21.5425C43.1802 21.3692 43.099 21.1687 43.0887 20.9409C43.086 20.8809 43.0944 20.8025 43.1141 20.7055C43.197 20.1492 43.3834 19.6242 43.6734 19.1306C43.9748 18.6244 44.3209 18.1763 44.7116 17.7862C45.1144 17.3956 45.5146 17.0832 45.9124 16.8489C46.3102 16.6147 46.653 16.4911 46.9407 16.478C47.1565 16.4683 47.3625 16.507 47.5586 16.5942C47.7662 16.6689 47.9645 16.804 48.1536 16.9997C48.1911 17.034 48.211 17.0752 48.2132 17.1231C48.2159 17.1831 48.1827 17.2446 48.1135 17.3078C48.0426 17.5993 47.9684 17.951 47.891 18.363C47.825 18.7624 47.7598 19.1797 47.6954 19.6151C47.6425 20.0379 47.6002 20.4302 47.5685 20.792C47.5369 21.1538 47.5254 21.4307 47.5341 21.6225C47.5401 21.7543 47.561 21.8194 47.597 21.8178C47.6929 21.8135 47.8081 21.7061 47.9428 21.4958C48.0894 21.285 48.2286 21.0444 48.3605 20.7742C48.4925 20.5039 48.6077 20.2645 48.7064 20.0558C48.817 19.8466 48.8844 19.7414 48.9083 19.7403C48.9443 19.7387 48.9644 19.7859 48.9688 19.8818C48.978 20.0855 48.9235 20.3403 48.8052 20.6459C48.6869 20.9516 48.5386 21.2586 48.3604 21.567C48.1936 21.8629 48.019 22.117 47.8364 22.3295C47.6653 22.5294 47.5257 22.6319 47.4179 22.6368ZM44.0507 21.0955C44.2185 21.0879 44.4239 20.9825 44.667 20.7793C44.922 20.5756 45.1806 20.3176 45.4428 20.0054C45.7169 19.6927 45.9782 19.3625 46.2268 19.0149C46.4873 18.6668 46.7067 18.3385 46.8849 18.0301C47.0746 17.7092 47.207 17.451 47.2822 17.2554C47.0425 17.2662 46.7708 17.3686 46.4673 17.5626C46.1632 17.7445 45.8556 17.9807 45.5444 18.271C45.2327 18.5494 44.9463 18.8567 44.6852 19.1929C44.4236 19.517 44.2157 19.8328 44.0615 20.1401C43.9072 20.4473 43.835 20.7089 43.8447 20.9247C43.8502 21.0445 43.9188 21.1015 44.0507 21.0955ZM47.9372 15.4058C47.7454 15.4145 47.5574 15.375 47.3733 15.2872C47.1891 15.1995 47.0112 15.1174 46.8396 15.0411C46.6674 14.9528 46.4854 14.913 46.2936 14.9217C46.0659 14.932 45.907 15.0053 45.8171 15.1415C45.7272 15.2777 45.6593 15.3709 45.6135 15.421C45.5536 15.4237 45.5228 15.4071 45.5212 15.3711C45.5337 15.1183 45.637 14.8794 45.8311 14.6544C46.0245 14.4174 46.3011 14.2907 46.6607 14.2744C46.9484 14.2614 47.2157 14.3274 47.4625 14.4724C47.7213 14.6168 47.9886 14.6828 48.2643 14.6703C48.3961 14.6643 48.5144 14.6229 48.619 14.5461C48.7237 14.4693 48.8155 14.3751 48.8945 14.2634C48.9784 14.2596 49.0212 14.2756 49.0228 14.3116C49.0163 14.432 48.9688 14.5783 48.8805 14.7505C48.8037 14.9101 48.6843 15.0597 48.5225 15.1992C48.3721 15.3261 48.177 15.395 47.9372 15.4058ZM50.8916 22.6776C50.4601 22.6972 50.1362 22.5737 49.9199 22.3072C49.7031 22.0287 49.5854 21.6857 49.567 21.2781C49.5474 20.8466 49.6254 20.3145 49.801 19.6819C49.9765 19.0493 50.1657 18.4521 50.3685 17.8904C50.1707 18.0315 49.9663 18.1609 49.7554 18.2785C49.5445 18.3962 49.3552 18.4588 49.1874 18.4664C49.0675 18.4718 48.9762 18.446 48.9136 18.3887C48.8629 18.331 48.8359 18.2661 48.8327 18.1942C48.83 18.1342 48.8439 18.0435 48.8744 17.922C48.9049 17.8005 48.9597 17.6839 49.0387 17.5722C49.1298 17.46 49.2412 17.4009 49.3731 17.3949C49.421 17.3927 49.4458 17.4096 49.4474 17.4456C49.448 17.4576 49.4425 17.4699 49.4311 17.4824C49.4311 17.4824 49.4314 17.4884 49.4319 17.5004C49.421 17.5249 49.4161 17.5491 49.4172 17.5731C49.4193 17.6211 49.4504 17.6437 49.5103 17.641C49.5463 17.6393 49.588 17.6314 49.6354 17.6173C49.6948 17.6026 49.7536 17.5759 49.8119 17.5372C49.9291 17.4718 50.0637 17.3937 50.2158 17.3027C50.3672 17.1997 50.5367 17.096 50.7242 16.9914L50.9695 16.4397C51.0354 16.3046 51.1153 16.2109 51.209 16.1586C51.3022 16.0943 51.3907 16.0603 51.4747 16.0565C51.6065 16.0505 51.7215 16.0693 51.8196 16.1129C51.9291 16.144 52.0272 16.1876 52.1138 16.2437C52.2429 16.1778 52.3783 16.1176 52.52 16.0632C52.6732 15.9962 52.8211 15.9474 52.9639 15.9169C53.4118 15.7285 53.8793 15.5752 54.3665 15.457C54.8531 15.3269 55.3362 15.2509 55.8157 15.2292C56.0794 15.2173 56.3508 15.241 56.6297 15.3004C56.9087 15.3599 57.0517 15.4675 57.0588 15.6234C57.061 15.6713 57.0141 15.6975 56.9182 15.7018C56.7264 15.7105 56.5035 15.6966 56.2496 15.66C56.0077 15.6229 55.7668 15.6098 55.5271 15.6207C55.2274 15.6342 54.9405 15.6652 54.6664 15.7137C54.3918 15.7502 54.1359 15.8038 53.8989 15.8746C54.0945 15.9498 54.2569 16.0866 54.386 16.285C54.5271 16.4828 54.6047 16.7375 54.6188 17.0492C54.634 17.3849 54.5683 17.7903 54.4216 18.2654C54.287 18.74 54.0929 19.2292 53.8394 19.7332C53.598 20.2367 53.3132 20.712 52.9851 21.1593C52.6564 21.5947 52.3123 21.9526 51.9526 22.2332C51.5929 22.5137 51.2393 22.6619 50.8916 22.6776ZM51.0723 22.291C51.3241 22.2796 51.5766 22.1541 51.8301 21.9144C52.0955 21.6741 52.3522 21.3742 52.6001 21.0146C52.8481 20.655 53.0656 20.2848 53.2526 19.904C53.3409 19.7318 53.4384 19.4991 53.5453 19.206C53.6641 18.9123 53.7582 18.6018 53.8274 18.2743C53.9087 17.9463 53.9433 17.6504 53.9314 17.3867C53.9205 17.1469 53.8576 16.9516 53.7426 16.8006C53.6391 16.6371 53.4495 16.5616 53.1738 16.5741C53.042 16.5801 52.8758 16.6236 52.6752 16.7048C52.4747 16.786 52.2627 16.8796 52.0393 16.9859C51.9935 17.036 51.948 17.0921 51.9028 17.1542C51.869 17.2038 51.8414 17.2591 51.8202 17.3201C51.6114 17.75 51.4048 18.2278 51.2004 18.7536C50.9954 19.2674 50.8259 19.7676 50.6918 20.2542C50.5696 20.7402 50.5167 21.163 50.533 21.5227C50.5569 22.0501 50.7367 22.3063 51.0723 22.291Z" fill="black"/>
</svg>
